<?xml version="1.0" encoding="UTF-8"?>
<svg width="30px" height="50px" version="1.1" viewBox="0 0 512 512" xml:space="preserve" xmlns="http://www.w3.org/2000/svg">

	<path d="m424.27 212.06c0 58.586-23.759 111.64-62.128 150.01l-148.46 148.38-1.55 1.549-149.86-149.86c-7.231-7.157-13.872-14.905-19.996-23.095-26.564-35.343-42.279-79.32-42.279-126.98 0-51.06 18.077-97.914 48.182-134.51 8.78-10.773 18.668-20.586 29.366-29.367 36.599-30.105 83.526-48.182 134.59-48.182 40.655 0 78.582 11.437 110.83 31.211 28.555 17.487 52.609 41.541 70.097 70.097 19.775 32.244 31.212 70.17 31.212 110.75z" fill="#f00"/>

<ellipse cx="214.16" cy="215.07" rx="174.27" ry="184.21" fill="#fff" stroke-width="24.856"/></svg>
